<svg xmlns="http://www.w3.org/2000/svg" width="1440" height="2422" viewBox="0 0 1440 2422" fill="none">
<path fill-rule="evenodd" clip-rule="evenodd" d="M1409 2309.5L1409 2359H1408L1408 2309.5H1297V2359H1296V2309.5H1185V2359H1184V2309.5H1073V2359H1072V2309.5H961.001V2359H960.001V2309.5H849.001V2359H848.001V2309.5H737.001V2359H736.001V2309.5H625.001V2359H624.001V2309.5H513.001V2359H512.001V2309.5H401V2359H400V2309.5H289V2359H288V2309.5H177V2359H176V2309.5H65.0001V2359H64.0001V2309.5H0V2308.5H64.0001V2197.5H0V2196.5H64.0001V2085.5H0V2084.5H64.0001V1973.5H0V1972.5H64.0001V1861.5H0V1860.5H64.0001V1749.5H0V1748.5H64.0001V1637.5H0V1636.5H64.0001V1525.5H0V1524.5H64.0001V1413.5H0V1412.5H64.0001V1301.5H0V1300.5H64.0001V1189.5H0V1188.5H64.0001L64 1077.5H0V1076.5H64V965.5H0V964.5H64V853.5H0V852.5H64V741.5H0V740.5H64V629.5H0V628.5H64V517.5H0V516.5H64V405.5H0V404.5H64V293.5H0V292.5H64V181.5H0V180.5H64V69.5H0V68.5H64V0H65V68.5H176V0H177V68.5H288V0H289V68.5H400V0H401V68.5H512V0H513V68.5H624.001V0H625.001V68.5H736.001V0H737.001V68.5H848.001V0H849.001V68.5H960.001V0H961.001V68.5H1072V0H1073V68.5H1184V0H1185V68.5H1296V0H1297V68.5H1408L1408 0H1409L1409 68.5H1440V69.5H1409L1409 180.5H1440V181.5H1409L1409 292.5H1440V293.5H1409L1409 404.5H1440V405.5H1409L1409 516.5H1440V517.5H1409L1409 628.5H1440V629.5H1409L1409 740.5H1440V741.5H1409L1409 852.5H1440V853.5H1409L1409 964.5H1440V965.5H1409L1409 1076.5H1440V1077.5H1409L1409 1188.5H1440V1189.5H1409L1409 1300.5H1440V1301.5H1409L1409 1412.5H1440V1413.5H1409L1409 1524.5H1440V1525.5H1409L1409 1636.5H1440V1637.5H1409L1409 1748.5H1440V1749.5H1409L1409 1860.5H1440V1861.5H1409L1409 1972.5H1440V1973.5H1409L1409 2084.5H1440V2085.5H1409L1409 2196.5H1440V2197.5H1409L1409 2308.5H1440V2309.5H1409ZM65 69.5H176V180.5H65V69.5ZM65 181.5H176V292.5H65V181.5ZM65 293.5H176V404.5H65V293.5ZM65 405.5H176V516.5H65V405.5ZM65 517.5H176V628.5H65V517.5ZM65 629.5H176V740.5H65V629.5ZM65 741.5H176V852.5H65V741.5ZM65 853.5H176V964.5H65V853.5ZM65 965.5H176V1076.5H65V965.5ZM65 1077.5H176L176 1188.5H65.0001L65 1077.5ZM65.0001 1189.5H176V1300.5H65.0001V1189.5ZM65.0001 1301.5H176V1412.5H65.0001V1301.5ZM65.0001 1413.5H176V1524.5H65.0001V1413.5ZM65.0001 1525.5H176V1636.5H65.0001V1525.5ZM65.0001 1637.5H176V1748.5H65.0001V1637.5ZM65.0001 1749.5H176V1860.5H65.0001V1749.5ZM65.0001 1861.5H176V1972.5H65.0001V1861.5ZM65.0001 1973.5H176V2084.5H65.0001V1973.5ZM65.0001 2085.5H176V2196.5H65.0001V2085.5ZM65.0001 2197.5H176V2308.5H65.0001V2197.5ZM177 2197.5V2308.5H288V2197.5H177ZM177 2085.5V2196.5H288V2085.5H177ZM177 1973.5V2084.5H288V1973.5H177ZM177 1861.5V1972.5H288V1861.5H177ZM177 1749.5V1860.5H288V1749.5H177ZM177 1637.5V1748.5H288V1637.5H177ZM177 1525.5V1636.5H288V1525.5H177ZM177 1413.5V1524.5H288V1413.5H177ZM177 1301.5V1412.5H288V1301.5H177ZM177 1189.5V1300.5H288V1189.5H177ZM177 1077.5L177 1188.5H288L288 1077.5H177ZM177 965.5V1076.5H288V965.5H177ZM177 853.5V964.5H288V853.5H177ZM177 741.5V852.5H288V741.5H177ZM177 629.5V740.5H288V629.5H177ZM177 517.5V628.5H288V517.5H177ZM177 405.5V516.5H288V405.5H177ZM177 293.5V404.5H288V293.5H177ZM177 181.5V292.5H288V181.5H177ZM177 69.5V180.5H288V69.5H177ZM289 69.5H400V180.5H289V69.5ZM289 181.5H400V292.5H289V181.5ZM289 293.5H400V404.5H289V293.5ZM289 405.5H400V516.5H289V405.5ZM289 517.5H400V628.5H289V517.5ZM289 629.5H400V740.5H289V629.5ZM289 741.5H400V852.5H289V741.5ZM289 853.5H400V964.5H289V853.5ZM289 965.5H400V1076.5H289V965.5ZM289 1077.5H400L400 1188.5H289L289 1077.5ZM289 1189.5H400V1300.5H289V1189.5ZM289 1301.5H400V1412.5H289V1301.5ZM289 1413.5H400V1524.5H289V1413.5ZM289 1525.5H400V1636.5H289V1525.5ZM289 1637.5H400V1748.5H289V1637.5ZM289 1749.5H400V1860.5H289V1749.5ZM289 1861.5H400V1972.5H289V1861.5ZM289 1973.5H400V2084.5H289V1973.5ZM289 2085.5H400V2196.5H289V2085.5ZM289 2197.5H400V2308.5H289V2197.5ZM401 2197.5V2308.5H512.001V2197.5H401ZM401 2085.5V2196.5H512.001V2085.5H401ZM401 1973.5V2084.5H512.001V1973.5H401ZM401 1861.5V1972.5H512.001V1861.5H401ZM401 1749.5V1860.5H512.001V1749.5H401ZM401 1637.5V1748.5H512.001V1637.5H401ZM401 1525.5V1636.5H512.001V1525.5H401ZM401 1413.5V1524.5H512.001V1413.5H401ZM401 1301.5V1412.5H512.001V1301.5H401ZM401 1189.5V1300.5H512.001V1189.5H401ZM401 1077.5L401 1188.5H512.001L512 1077.5H401ZM401 965.5V1076.5H512V965.5H401ZM401 853.5V964.5H512V853.5H401ZM401 741.5V852.5H512V741.5H401ZM401 629.5V740.5H512V629.5H401ZM401 517.5V628.5H512V517.5H401ZM401 405.5V516.5H512V405.5H401ZM401 293.5V404.5H512V293.5H401ZM401 181.5V292.5H512V181.5H401ZM401 69.5V180.5H512V69.5H401ZM513 69.5H624.001V180.5H513V69.5ZM513 181.5H624.001V292.5H513V181.5ZM513 293.5H624.001V404.5H513V293.5ZM513 405.5H624.001V516.5H513V405.5ZM513 517.5H624.001V628.5H513V517.5ZM513 629.5H624.001V740.5H513V629.5ZM513 741.5H624.001V852.5H513V741.5ZM513 853.5H624.001V964.5H513V853.5ZM513 965.5H624.001V1076.5H513V965.5ZM513 1077.5H624.001L624.001 1188.5H513.001L513 1077.5ZM513.001 1189.5H624.001V1300.5H513.001V1189.5ZM513.001 1301.5H624.001V1412.5H513.001V1301.5ZM513.001 1413.5H624.001V1524.5H513.001V1413.5ZM513.001 1525.5H624.001V1636.5H513.001V1525.5ZM513.001 1637.5H624.001V1748.5H513.001V1637.5ZM513.001 1749.5H624.001V1860.5H513.001V1749.5ZM513.001 1861.5H624.001V1972.5H513.001V1861.5ZM513.001 1973.5H624.001V2084.5H513.001V1973.5ZM513.001 2085.5H624.001V2196.5H513.001V2085.5ZM513.001 2197.5H624.001V2308.5H513.001V2197.5ZM625.001 2197.5V2308.5H736.001V2197.5H625.001ZM625.001 2085.5V2196.5H736.001V2085.5H625.001ZM625.001 1973.5V2084.5H736.001V1973.5H625.001ZM625.001 1861.5V1972.5H736.001V1861.5H625.001ZM625.001 1749.5V1860.5H736.001V1749.5H625.001ZM625.001 1637.5V1748.5H736.001V1637.5H625.001ZM625.001 1525.5V1636.5H736.001V1525.5H625.001ZM625.001 1413.5V1524.5H736.001V1413.5H625.001ZM625.001 1301.5V1412.5H736.001V1301.5H625.001ZM625.001 1189.5V1300.5H736.001V1189.5H625.001ZM625.001 1077.5L625.001 1188.5H736.001L736.001 1077.5H625.001ZM625.001 965.5V1076.5H736.001V965.5H625.001ZM625.001 853.5V964.5H736.001V853.5H625.001ZM625.001 741.5V852.5H736.001V741.5H625.001ZM625.001 629.5V740.5H736.001V629.5H625.001ZM625.001 517.5V628.5H736.001V517.5H625.001ZM625.001 405.5V516.5H736.001V405.5H625.001ZM625.001 293.5V404.5H736.001V293.5H625.001ZM625.001 181.5V292.5H736.001V181.5H625.001ZM625.001 69.5V180.5H736.001V69.5H625.001ZM737.001 69.5H848.001V180.5H737.001V69.5ZM737.001 181.5H848.001V292.5H737.001V181.5ZM737.001 293.5H848.001V404.5H737.001V293.5ZM737.001 405.5H848.001V516.5H737.001V405.5ZM737.001 517.5H848.001V628.5H737.001V517.5ZM737.001 629.5H848.001V740.5H737.001V629.5ZM737.001 741.5H848.001V852.5H737.001V741.5ZM737.001 853.5H848.001V964.5H737.001V853.5ZM737.001 965.5H848.001V1076.5H737.001V965.5ZM737.001 1077.5H848.001L848.001 1188.5H737.001L737.001 1077.5ZM737.001 1189.5H848.001V1300.5H737.001V1189.5ZM737.001 1301.5H848.001V1412.5H737.001V1301.5ZM737.001 1413.5H848.001V1524.5H737.001V1413.5ZM737.001 1525.5H848.001V1636.5H737.001V1525.5ZM737.001 1637.5H848.001V1748.5H737.001V1637.5ZM737.001 1749.5H848.001V1860.5H737.001V1749.5ZM737.001 1861.5H848.001V1972.5H737.001V1861.5ZM737.001 1973.5H848.001V2084.5H737.001V1973.5ZM737.001 2085.5H848.001V2196.5H737.001V2085.5ZM737.001 2197.5H848.001V2308.5H737.001V2197.5ZM849.001 2197.5V2308.5H960.001V2197.5H849.001ZM849.001 2085.5V2196.5H960.001V2085.5H849.001ZM849.001 1973.5V2084.5H960.001L960.001 1973.5H849.001ZM849.001 1861.5V1972.5H960.001V1861.5H849.001ZM849.001 1749.5V1860.5H960.001V1749.5H849.001ZM849.001 1637.5V1748.5H960.001V1637.5H849.001ZM849.001 1525.5V1636.5H960.001V1525.5H849.001ZM849.001 1413.5V1524.5H960.001L960.001 1413.5H849.001ZM849.001 1301.5V1412.5H960.001V1301.5H849.001ZM849.001 1189.5V1300.5H960.001V1189.5H849.001ZM849.001 1077.5L849.001 1188.5H960.001V1077.5H849.001ZM849.001 965.5V1076.5H960.001V965.5H849.001ZM849.001 853.5V964.5H960.001L960.001 853.5H849.001ZM849.001 741.5V852.5H960.001V741.5H849.001ZM849.001 629.5V740.5H960.001V629.5H849.001ZM849.001 517.5V628.5H960.001V517.5H849.001ZM849.001 405.5V516.5H960.001V405.5H849.001ZM849.001 293.5V404.5H960.001L960.001 293.5H849.001ZM849.001 181.5V292.5H960.001V181.5H849.001ZM849.001 69.5V180.5H960.001V69.5H849.001ZM961.001 69.5H1072V180.5H961.001V69.5ZM961.001 181.5H1072V292.5H961.001V181.5ZM961.001 293.5H1072L1072 404.5H961.001L961.001 293.5ZM961.001 405.5H1072V516.5H961.001V405.5ZM961.001 517.5H1072V628.5H961.001V517.5ZM961.001 629.5H1072V740.5H961.001V629.5ZM961.001 741.5H1072V852.5H961.001V741.5ZM961.001 853.5H1072V964.5H961.001L961.001 853.5ZM961.001 965.5H1072V1076.5H961.001V965.5ZM961.001 1077.5H1072L1072 1188.5H961.001V1077.5ZM961.001 1189.5H1072V1300.5H961.001V1189.5ZM961.001 1301.5H1072V1412.5H961.001V1301.5ZM961.001 1413.5H1072V1524.5H961.001L961.001 1413.5ZM961.001 1525.5H1072V1636.5H961.001V1525.5ZM961.001 1637.5H1072V1748.5H961.001V1637.5ZM961.001 1749.5H1072V1860.5H961.001V1749.5ZM961.001 1861.5H1072L1072 1972.5H961.001V1861.5ZM961.001 1973.5H1072V2084.5H961.001L961.001 1973.5ZM961.001 2085.5H1072V2196.5H961.001V2085.5ZM961.001 2197.5H1072V2308.5H961.001V2197.5ZM1073 2197.5V2308.5H1184V2197.5H1073ZM1073 2085.5V2196.5H1184L1184 2085.5H1073ZM1073 1973.5V2084.5H1184V1973.5H1073ZM1073 1861.5L1073 1972.5H1184V1861.5H1073ZM1073 1749.5V1860.5H1184L1184 1749.5H1073ZM1073 1637.5V1748.5H1184V1637.5H1073ZM1073 1525.5V1636.5H1184V1525.5H1073ZM1073 1413.5V1524.5H1184V1413.5H1073ZM1073 1301.5V1412.5H1184L1184 1301.5H1073ZM1073 1189.5V1300.5H1184V1189.5H1073ZM1073 1077.5L1073 1188.5H1184V1077.5H1073ZM1073 965.5V1076.5H1184L1184 965.5H1073ZM1073 853.5V964.5H1184V853.5H1073ZM1073 741.5V852.5H1184V741.5H1073ZM1073 629.5V740.5H1184V629.5H1073ZM1073 517.5V628.5H1184L1184 517.5H1073ZM1073 405.5V516.5H1184V405.5H1073ZM1073 293.5L1073 404.5H1184V293.5H1073ZM1073 181.5V292.5H1184L1184 181.5H1073ZM1073 69.5V180.5H1184V69.5H1073ZM1185 69.5H1296V180.5H1185V69.5ZM1185 181.5H1296L1296 292.5H1185L1185 181.5ZM1185 293.5H1296V404.5H1185V293.5ZM1185 405.5H1296V516.5H1185V405.5ZM1185 517.5H1296L1296 628.5H1185L1185 517.5ZM1185 629.5H1296V740.5H1185V629.5ZM1185 741.5H1296V852.5H1185V741.5ZM1185 853.5H1296V964.5H1185V853.5ZM1185 965.5H1296L1296 1076.5H1185L1185 965.5ZM1185 1077.5H1296V1188.5H1185V1077.5ZM1185 1189.5H1296V1300.5H1185V1189.5ZM1185 1301.5H1296L1296 1412.5H1185L1185 1301.5ZM1185 1413.5H1296V1524.5H1185V1413.5ZM1185 1525.5H1296V1636.5H1185V1525.5ZM1185 1637.5H1296V1748.5H1185V1637.5ZM1185 1749.5H1296L1296 1860.5H1185L1185 1749.5ZM1185 1861.5H1296V1972.5H1185V1861.5ZM1185 1973.5H1296V2084.5H1185V1973.5ZM1185 2085.5H1296L1296 2196.5H1185L1185 2085.5ZM1185 2197.5H1296V2308.5H1185V2197.5ZM1297 2197.5V2308.5H1408L1408 2197.5H1297ZM1297 2085.5L1297 2196.5H1408L1408 2085.5H1297ZM1297 1973.5V2084.5H1408L1408 1973.5H1297ZM1297 1861.5V1972.5H1408L1408 1861.5H1297ZM1297 1749.5L1297 1860.5H1408L1408 1749.5H1297ZM1297 1637.5V1748.5H1408L1408 1637.5H1297ZM1297 1525.5V1636.5H1408L1408 1525.5H1297ZM1297 1413.5V1524.5H1408L1408 1413.5H1297ZM1297 1301.5L1297 1412.5H1408L1408 1301.5H1297ZM1297 1189.5V1300.5H1408L1408 1189.5H1297ZM1297 1077.5V1188.5H1408L1408 1077.5H1297ZM1297 965.5L1297 1076.5H1408L1408 965.5H1297ZM1297 853.5V964.5H1408L1408 853.5H1297ZM1297 741.5V852.5H1408L1408 741.5H1297ZM1297 629.5V740.5H1408L1408 629.5H1297ZM1297 517.5L1297 628.5H1408L1408 517.5H1297ZM1297 405.5V516.5H1408L1408 405.5H1297ZM1297 293.5V404.5H1408L1408 293.5H1297ZM1297 181.5L1297 292.5H1408L1408 181.5H1297ZM1297 69.5V180.5H1408L1408 69.5H1297ZM0 2421.5H1440V2420.5H0V2421.5Z" fill="url(#paint0_linear)"/>
<defs>
<linearGradient id="paint0_linear" x1="1440" y1="1056.5" x2="2.68149" y2="994.418" gradientUnits="userSpaceOnUse">
<stop stop-color="white" stop-opacity="0.01"/>
<stop offset="1" stop-color="white" stop-opacity="0.04"/>
</linearGradient>
</defs>
</svg>